<mxfile host="app.diagrams.net" agent="Mozilla/5.0 (X11; Linux x86_64; rv:138.0) Gecko/20100101 Firefox/138.0" version="27.2.0">
  <diagram name="Page-1" id="hFxnkWMH6C80C6UsPF_a">
    <mxGraphModel dx="1173" dy="591" grid="0" gridSize="10" guides="1" tooltips="1" connect="1" arrows="1" fold="1" page="0" pageScale="1" pageWidth="850" pageHeight="1100" math="0" shadow="0">
      <root>
        <mxCell id="0" />
        <mxCell id="1" parent="0" />
        <mxCell id="Wduo-rI9iU1A8Wf9mQqQ-1" value="" style="verticalLabelPosition=bottom;html=1;verticalAlign=top;align=center;strokeColor=none;fillColor=#00BEF2;shape=mxgraph.azure.computer;pointerEvents=1;" parent="1" vertex="1">
          <mxGeometry x="13" y="182" width="50" height="45" as="geometry" />
        </mxCell>
        <mxCell id="Wduo-rI9iU1A8Wf9mQqQ-2" value="" style="verticalLabelPosition=bottom;html=1;verticalAlign=top;align=center;strokeColor=none;fillColor=#00BEF2;shape=mxgraph.azure.computer;pointerEvents=1;" parent="1" vertex="1">
          <mxGeometry x="102" y="182" width="50" height="45" as="geometry" />
        </mxCell>
        <mxCell id="Wduo-rI9iU1A8Wf9mQqQ-3" value="" style="verticalLabelPosition=bottom;html=1;verticalAlign=top;align=center;strokeColor=none;fillColor=#00BEF2;shape=mxgraph.azure.computer;pointerEvents=1;" parent="1" vertex="1">
          <mxGeometry x="191" y="182" width="50" height="45" as="geometry" />
        </mxCell>
        <mxCell id="Wduo-rI9iU1A8Wf9mQqQ-4" value="" style="verticalLabelPosition=bottom;html=1;verticalAlign=top;align=center;strokeColor=none;fillColor=#00BEF2;shape=mxgraph.azure.computer;pointerEvents=1;" parent="1" vertex="1">
          <mxGeometry x="280" y="182" width="50" height="45" as="geometry" />
        </mxCell>
        <mxCell id="Wduo-rI9iU1A8Wf9mQqQ-5" value="" style="verticalLabelPosition=bottom;html=1;verticalAlign=top;align=center;strokeColor=none;fillColor=#00BEF2;shape=mxgraph.azure.computer;pointerEvents=1;" parent="1" vertex="1">
          <mxGeometry x="369" y="182" width="50" height="45" as="geometry" />
        </mxCell>
        <mxCell id="Wduo-rI9iU1A8Wf9mQqQ-6" value="" style="verticalLabelPosition=bottom;html=1;verticalAlign=top;align=center;strokeColor=none;fillColor=#00BEF2;shape=mxgraph.azure.computer;pointerEvents=1;" parent="1" vertex="1">
          <mxGeometry x="458" y="182" width="50" height="45" as="geometry" />
        </mxCell>
        <mxCell id="Wduo-rI9iU1A8Wf9mQqQ-8" value="" style="verticalLabelPosition=bottom;html=1;verticalAlign=top;align=center;strokeColor=none;fillColor=#00BEF2;shape=mxgraph.azure.computer;pointerEvents=1;" parent="1" vertex="1">
          <mxGeometry x="547" y="182" width="50" height="45" as="geometry" />
        </mxCell>
        <mxCell id="Wduo-rI9iU1A8Wf9mQqQ-9" value="" style="verticalLabelPosition=bottom;html=1;verticalAlign=top;align=center;strokeColor=none;fillColor=#00BEF2;shape=mxgraph.azure.computer;pointerEvents=1;" parent="1" vertex="1">
          <mxGeometry x="636" y="182" width="50" height="45" as="geometry" />
        </mxCell>
        <mxCell id="Wduo-rI9iU1A8Wf9mQqQ-10" value="" style="verticalLabelPosition=bottom;html=1;verticalAlign=top;align=center;strokeColor=none;fillColor=#00BEF2;shape=mxgraph.azure.computer;pointerEvents=1;" parent="1" vertex="1">
          <mxGeometry x="725" y="182" width="50" height="45" as="geometry" />
        </mxCell>
        <mxCell id="Wduo-rI9iU1A8Wf9mQqQ-11" value="" style="verticalLabelPosition=bottom;html=1;verticalAlign=top;align=center;strokeColor=none;fillColor=#00BEF2;shape=mxgraph.azure.computer;pointerEvents=1;" parent="1" vertex="1">
          <mxGeometry x="13" y="306" width="50" height="45" as="geometry" />
        </mxCell>
        <mxCell id="Wduo-rI9iU1A8Wf9mQqQ-12" value="" style="verticalLabelPosition=bottom;html=1;verticalAlign=top;align=center;strokeColor=none;fillColor=#00BEF2;shape=mxgraph.azure.computer;pointerEvents=1;" parent="1" vertex="1">
          <mxGeometry x="102" y="306" width="50" height="45" as="geometry" />
        </mxCell>
        <mxCell id="Wduo-rI9iU1A8Wf9mQqQ-13" value="" style="verticalLabelPosition=bottom;html=1;verticalAlign=top;align=center;strokeColor=none;fillColor=#00BEF2;shape=mxgraph.azure.computer;pointerEvents=1;" parent="1" vertex="1">
          <mxGeometry x="191" y="306" width="50" height="45" as="geometry" />
        </mxCell>
        <mxCell id="Wduo-rI9iU1A8Wf9mQqQ-14" value="" style="verticalLabelPosition=bottom;html=1;verticalAlign=top;align=center;strokeColor=none;fillColor=#00BEF2;shape=mxgraph.azure.computer;pointerEvents=1;" parent="1" vertex="1">
          <mxGeometry x="280" y="306" width="50" height="45" as="geometry" />
        </mxCell>
        <mxCell id="Wduo-rI9iU1A8Wf9mQqQ-15" value="" style="verticalLabelPosition=bottom;html=1;verticalAlign=top;align=center;strokeColor=none;fillColor=#00BEF2;shape=mxgraph.azure.computer;pointerEvents=1;" parent="1" vertex="1">
          <mxGeometry x="369" y="306" width="50" height="45" as="geometry" />
        </mxCell>
        <mxCell id="Wduo-rI9iU1A8Wf9mQqQ-16" value="" style="verticalLabelPosition=bottom;html=1;verticalAlign=top;align=center;strokeColor=none;fillColor=#00BEF2;shape=mxgraph.azure.computer;pointerEvents=1;" parent="1" vertex="1">
          <mxGeometry x="458" y="306" width="50" height="45" as="geometry" />
        </mxCell>
        <mxCell id="Wduo-rI9iU1A8Wf9mQqQ-17" value="" style="verticalLabelPosition=bottom;html=1;verticalAlign=top;align=center;strokeColor=none;fillColor=#00BEF2;shape=mxgraph.azure.computer;pointerEvents=1;" parent="1" vertex="1">
          <mxGeometry x="547" y="306" width="50" height="45" as="geometry" />
        </mxCell>
        <mxCell id="Wduo-rI9iU1A8Wf9mQqQ-18" value="" style="verticalLabelPosition=bottom;html=1;verticalAlign=top;align=center;strokeColor=none;fillColor=#00BEF2;shape=mxgraph.azure.computer;pointerEvents=1;" parent="1" vertex="1">
          <mxGeometry x="636" y="306" width="50" height="45" as="geometry" />
        </mxCell>
        <mxCell id="Wduo-rI9iU1A8Wf9mQqQ-19" value="" style="verticalLabelPosition=bottom;html=1;verticalAlign=top;align=center;strokeColor=none;fillColor=#00BEF2;shape=mxgraph.azure.computer;pointerEvents=1;" parent="1" vertex="1">
          <mxGeometry x="725" y="306" width="50" height="45" as="geometry" />
        </mxCell>
        <mxCell id="Wduo-rI9iU1A8Wf9mQqQ-20" value="" style="verticalLabelPosition=bottom;html=1;verticalAlign=top;align=center;strokeColor=none;fillColor=#00BEF2;shape=mxgraph.azure.computer;pointerEvents=1;" parent="1" vertex="1">
          <mxGeometry x="11" y="425" width="50" height="45" as="geometry" />
        </mxCell>
        <mxCell id="Wduo-rI9iU1A8Wf9mQqQ-21" value="" style="verticalLabelPosition=bottom;html=1;verticalAlign=top;align=center;strokeColor=none;fillColor=#00BEF2;shape=mxgraph.azure.computer;pointerEvents=1;" parent="1" vertex="1">
          <mxGeometry x="100" y="425" width="50" height="45" as="geometry" />
        </mxCell>
        <mxCell id="Wduo-rI9iU1A8Wf9mQqQ-22" value="" style="verticalLabelPosition=bottom;html=1;verticalAlign=top;align=center;strokeColor=none;fillColor=#00BEF2;shape=mxgraph.azure.computer;pointerEvents=1;" parent="1" vertex="1">
          <mxGeometry x="189" y="425" width="50" height="45" as="geometry" />
        </mxCell>
        <mxCell id="Wduo-rI9iU1A8Wf9mQqQ-23" value="" style="verticalLabelPosition=bottom;html=1;verticalAlign=top;align=center;strokeColor=none;fillColor=#00BEF2;shape=mxgraph.azure.computer;pointerEvents=1;" parent="1" vertex="1">
          <mxGeometry x="278" y="425" width="50" height="45" as="geometry" />
        </mxCell>
        <mxCell id="Wduo-rI9iU1A8Wf9mQqQ-24" value="" style="verticalLabelPosition=bottom;html=1;verticalAlign=top;align=center;strokeColor=none;fillColor=#00BEF2;shape=mxgraph.azure.computer;pointerEvents=1;" parent="1" vertex="1">
          <mxGeometry x="367" y="425" width="50" height="45" as="geometry" />
        </mxCell>
        <mxCell id="Wduo-rI9iU1A8Wf9mQqQ-25" value="" style="verticalLabelPosition=bottom;html=1;verticalAlign=top;align=center;strokeColor=none;fillColor=#00BEF2;shape=mxgraph.azure.computer;pointerEvents=1;" parent="1" vertex="1">
          <mxGeometry x="456" y="425" width="50" height="45" as="geometry" />
        </mxCell>
        <mxCell id="Wduo-rI9iU1A8Wf9mQqQ-26" value="" style="verticalLabelPosition=bottom;html=1;verticalAlign=top;align=center;strokeColor=none;fillColor=#00BEF2;shape=mxgraph.azure.computer;pointerEvents=1;" parent="1" vertex="1">
          <mxGeometry x="545" y="425" width="50" height="45" as="geometry" />
        </mxCell>
        <mxCell id="Wduo-rI9iU1A8Wf9mQqQ-27" value="" style="verticalLabelPosition=bottom;html=1;verticalAlign=top;align=center;strokeColor=none;fillColor=#00BEF2;shape=mxgraph.azure.computer;pointerEvents=1;" parent="1" vertex="1">
          <mxGeometry x="634" y="425" width="50" height="45" as="geometry" />
        </mxCell>
        <mxCell id="Wduo-rI9iU1A8Wf9mQqQ-28" value="" style="verticalLabelPosition=bottom;html=1;verticalAlign=top;align=center;strokeColor=none;fillColor=#00BEF2;shape=mxgraph.azure.computer;pointerEvents=1;" parent="1" vertex="1">
          <mxGeometry x="723" y="425" width="50" height="45" as="geometry" />
        </mxCell>
        <mxCell id="Wduo-rI9iU1A8Wf9mQqQ-29" value="Equipo 1" style="rounded=0;whiteSpace=wrap;html=1;fillColor=#00CC66;strokeColor=#6c8ebf;opacity=40;verticalAlign=top;" parent="1" vertex="1">
          <mxGeometry y="155" width="254" height="96" as="geometry" />
        </mxCell>
        <mxCell id="Wduo-rI9iU1A8Wf9mQqQ-30" value="Equipo 2" style="rounded=0;whiteSpace=wrap;html=1;fillColor=#0000FF;strokeColor=#6c8ebf;opacity=40;verticalAlign=top;" parent="1" vertex="1">
          <mxGeometry x="267" y="155" width="254" height="96" as="geometry" />
        </mxCell>
        <mxCell id="Wduo-rI9iU1A8Wf9mQqQ-31" value="Equipo 3" style="rounded=0;whiteSpace=wrap;html=1;fillColor=#FF3333;strokeColor=#6c8ebf;opacity=40;verticalAlign=top;" parent="1" vertex="1">
          <mxGeometry x="534" y="155" width="254" height="96" as="geometry" />
        </mxCell>
        <mxCell id="Wduo-rI9iU1A8Wf9mQqQ-32" value="Equipo 4" style="rounded=0;whiteSpace=wrap;html=1;fillColor=#FF0080;strokeColor=#6c8ebf;opacity=40;verticalAlign=top;" parent="1" vertex="1">
          <mxGeometry y="280.5" width="254" height="96" as="geometry" />
        </mxCell>
        <mxCell id="Wduo-rI9iU1A8Wf9mQqQ-33" value="Equipo 5" style="rounded=0;whiteSpace=wrap;html=1;fillColor=#FFFF00;strokeColor=#6c8ebf;opacity=40;verticalAlign=top;" parent="1" vertex="1">
          <mxGeometry x="267" y="280.5" width="254" height="96" as="geometry" />
        </mxCell>
        <mxCell id="Wduo-rI9iU1A8Wf9mQqQ-34" value="Equipo 6" style="rounded=0;whiteSpace=wrap;html=1;fillColor=#80FF00;strokeColor=#6c8ebf;opacity=40;verticalAlign=top;" parent="1" vertex="1">
          <mxGeometry x="537" y="280.5" width="254" height="96" as="geometry" />
        </mxCell>
        <mxCell id="Wduo-rI9iU1A8Wf9mQqQ-35" value="Equipo 7" style="rounded=0;whiteSpace=wrap;html=1;fillColor=#00FFFF;strokeColor=#6c8ebf;opacity=40;verticalAlign=top;" parent="1" vertex="1">
          <mxGeometry y="399.5" width="254" height="96" as="geometry" />
        </mxCell>
        <mxCell id="Wduo-rI9iU1A8Wf9mQqQ-36" value="Equipo 8" style="rounded=0;whiteSpace=wrap;html=1;fillColor=#FF8000;strokeColor=#6c8ebf;opacity=40;verticalAlign=top;" parent="1" vertex="1">
          <mxGeometry x="270" y="399.5" width="254" height="96" as="geometry" />
        </mxCell>
        <mxCell id="Wduo-rI9iU1A8Wf9mQqQ-37" value="Equipo 9" style="rounded=0;whiteSpace=wrap;html=1;fillColor=#7F00FF;strokeColor=#6c8ebf;opacity=40;verticalAlign=top;" parent="1" vertex="1">
          <mxGeometry x="537" y="399.5" width="254" height="96" as="geometry" />
        </mxCell>
        <mxCell id="FYHPF-Zyeq2GO6crJtSw-1" value="" style="rounded=0;whiteSpace=wrap;html=1;" vertex="1" parent="1">
          <mxGeometry y="643" width="120" height="60" as="geometry" />
        </mxCell>
      </root>
    </mxGraphModel>
  </diagram>
</mxfile>
